<?xml version="1.0" encoding="utf-8"?>
<!DOCTYPE svg PUBLIC "-//W3C//DTD SVG 1.1//EN" "http://www.w3.org/Graphics/SVG/1.1/DTD/svg11.dtd">
<svg version="1.1" id="Layer_1" xmlns="http://www.w3.org/2000/svg" xmlns:xlink="http://www.w3.org/1999/xlink" x="0px" y="0px"
width="1452px" height="1452px" viewBox="0 0 1452 1452" enable-background="new 0 0 1452 1452" xml:space="preserve">
<rect x="0" y="0" width="1452" height="1452" fill="rgb(255,255,255)" /><g transform="translate(88,88)"><g transform="translate(352,0) scale(0.44,0.44)"><g transform="" style="fill: rgb(0, 0, 0);">
<g>
	<path d="M100,40.625V100H0V40.625L50,0L100,40.625z"/>
</g>
</g></g><g transform="translate(440,0) scale(0.44,0.44)"><g transform="" style="fill: rgb(0, 0, 0);">
<g>
	<path d="M40.625,0H100v100H40.625L0,50L40.625,0z"/>
</g>
</g></g><g transform="translate(484,0) scale(0.44,0.44)"><g transform="" style="fill: rgb(0, 0, 0);">
<g>
	<path d="M59.375,0H0v100h59.375L100,50L59.375,0z"/>
</g>
</g></g><g transform="translate(660,0) scale(0.44,0.44)"><g transform="" style="fill: rgb(0, 0, 0);">
<g>
	<path d="M40.625,0H100v100H40.625L0,50L40.625,0z"/>
</g>
</g></g><g transform="translate(704,0) scale(0.44,0.44)"><g transform="" style="fill: rgb(0, 0, 0);">
<rect width="100" height="100"/>
</g></g><g transform="translate(748,0) scale(0.44,0.44)"><g transform="" style="fill: rgb(0, 0, 0);">
<g>
	<path d="M59.375,0H0v100h59.375L100,50L59.375,0z"/>
</g>
</g></g><g transform="translate(352,44) scale(0.44,0.44)"><g transform="" style="fill: rgb(0, 0, 0);">
<rect width="100" height="100"/>
</g></g><g transform="translate(396,44) scale(0.44,0.44)"><g transform="" style="fill: rgb(0, 0, 0);">
<g>
	<path d="M100,34.375L65.625,0H0v100h100V34.375z"/>
</g>
</g></g><g transform="translate(528,44) scale(0.44,0.44)"><g transform="" style="fill: rgb(0, 0, 0);">
<polygon points="99.999,49.999 99.998,49.999 49.999,0 0,49.999 -0.001,49.999 -0.001,50 0,50 49.999,99.999 99.998,50 99.999,50 
	99.998,50 "/>
</g></g><g transform="translate(704,44) scale(0.44,0.44)"><g transform="" style="fill: rgb(0, 0, 0);">
<rect width="100" height="100"/>
</g></g><g transform="translate(836,44) scale(0.44,0.44)"><g transform="" style="fill: rgb(0, 0, 0);">
<g>
	<path d="M100,40.625V100H0V40.625L50,0L100,40.625z"/>
</g>
</g></g><g transform="translate(352,88) scale(0.44,0.44)"><g transform="" style="fill: rgb(0, 0, 0);">
<g>
	<path d="M34.375,100H100V0H0v65.625"/>
</g>
</g></g><g transform="translate(396,88) scale(0.44,0.44)"><g transform="" style="fill: rgb(0, 0, 0);">
<rect width="100" height="100"/>
</g></g><g transform="translate(440,88) scale(0.44,0.44)"><g transform="" style="fill: rgb(0, 0, 0);">
<g>
	<path d="M100,34.375L65.625,0H0v100h100V34.375z"/>
</g>
</g></g><g transform="translate(660,88) scale(0.44,0.44)"><g transform="" style="fill: rgb(0, 0, 0);">
<g>
	<path d="M40.625,0H100v100H40.625L0,50L40.625,0z"/>
</g>
</g></g><g transform="translate(704,88) scale(0.44,0.44)"><g transform="" style="fill: rgb(0, 0, 0);">
<rect width="100" height="100"/>
</g></g><g transform="translate(792,88) scale(0.44,0.44)"><g transform="" style="fill: rgb(0, 0, 0);">
<g>
	<path d="M40.625,0H100v100H40.625L0,50L40.625,0z"/>
</g>
</g></g><g transform="translate(836,88) scale(0.44,0.44)"><g transform="" style="fill: rgb(0, 0, 0);">
<g>
	<path d="M100,65.625V0H0v100h65.625"/>
</g>
</g></g><g transform="translate(440,132) scale(0.44,0.44)"><g transform="" style="fill: rgb(0, 0, 0);">
<rect width="100" height="100"/>
</g></g><g transform="translate(484,132) scale(0.44,0.44)"><g transform="" style="fill: rgb(0, 0, 0);">
<g>
	<path d="M100,34.375L65.625,0H0v100h100V34.375z"/>
</g>
</g></g><g transform="translate(704,132) scale(0.44,0.44)"><g transform="" style="fill: rgb(0, 0, 0);">
<rect width="100" height="100"/>
</g></g><g transform="translate(748,132) scale(0.44,0.44)"><g transform="" style="fill: rgb(0, 0, 0);">
<g>
	<path d="M59.375,0H0v100h59.375L100,50L59.375,0z"/>
</g>
</g></g><g transform="translate(880,132) scale(0.44,0.44)"><g transform="" style="fill: rgb(0, 0, 0);">
<polygon points="99.999,49.999 99.998,49.999 49.999,0 0,49.999 -0.001,49.999 -0.001,50 0,50 49.999,99.999 99.998,50 99.999,50 
	99.998,50 "/>
</g></g><g transform="translate(352,176) scale(0.44,0.44)"><g transform="" style="fill: rgb(0, 0, 0);">
<g>
	<path d="M40.625,0H100v100H40.625L0,50L40.625,0z"/>
</g>
</g></g><g transform="translate(396,176) scale(0.44,0.44)"><g transform="" style="fill: rgb(0, 0, 0);">
<rect width="100" height="100"/>
</g></g><g transform="translate(440,176) scale(0.44,0.44)"><g transform="" style="fill: rgb(0, 0, 0);">
<rect width="100" height="100"/>
</g></g><g transform="translate(484,176) scale(0.44,0.44)"><g transform="" style="fill: rgb(0, 0, 0);">
<rect width="100" height="100"/>
</g></g><g transform="translate(616,176) scale(0.44,0.44)"><g transform="" style="fill: rgb(0, 0, 0);">
<g>
	<path d="M40.625,0H100v100H40.625L0,50L40.625,0z"/>
</g>
</g></g><g transform="translate(660,176) scale(0.44,0.44)"><g transform="" style="fill: rgb(0, 0, 0);">
<rect width="100" height="100"/>
</g></g><g transform="translate(704,176) scale(0.44,0.44)"><g transform="" style="fill: rgb(0, 0, 0);">
<rect width="100" height="100"/>
</g></g><g transform="translate(792,176) scale(0.44,0.44)"><g transform="" style="fill: rgb(0, 0, 0);">
<g>
	<path d="M0,34.375V100h100V34.375V0H34.375"/>
</g>
</g></g><g transform="translate(836,176) scale(0.44,0.44)"><g transform="" style="fill: rgb(0, 0, 0);">
<g>
	<path d="M59.375,0H0v100h59.375L100,50L59.375,0z"/>
</g>
</g></g><g transform="translate(396,220) scale(0.44,0.44)"><g transform="" style="fill: rgb(0, 0, 0);">
<g>
	<path d="M34.375,100H100V0H0v65.625"/>
</g>
</g></g><g transform="translate(440,220) scale(0.44,0.44)"><g transform="" style="fill: rgb(0, 0, 0);">
<rect width="100" height="100"/>
</g></g><g transform="translate(484,220) scale(0.44,0.44)"><g transform="" style="fill: rgb(0, 0, 0);">
<g>
	<path d="M100,65.625V0H0v100h65.625"/>
</g>
</g></g><g transform="translate(660,220) scale(0.44,0.44)"><g transform="" style="fill: rgb(0, 0, 0);">
<g>
	<path d="M34.375,100H100V0H0v65.625"/>
</g>
</g></g><g transform="translate(704,220) scale(0.44,0.44)"><g transform="" style="fill: rgb(0, 0, 0);">
<rect width="100" height="100"/>
</g></g><g transform="translate(748,220) scale(0.44,0.44)"><g transform="" style="fill: rgb(0, 0, 0);">
<rect width="100" height="100"/>
</g></g><g transform="translate(792,220) scale(0.44,0.44)"><g transform="" style="fill: rgb(0, 0, 0);">
<rect width="100" height="100"/>
</g></g><g transform="translate(880,220) scale(0.44,0.44)"><g transform="" style="fill: rgb(0, 0, 0);">
<g>
	<path d="M100,40.625V100H0V40.625L50,0L100,40.625z"/>
</g>
</g></g><g transform="translate(352,264) scale(0.44,0.44)"><g transform="" style="fill: rgb(0, 0, 0);">
<polygon points="99.999,49.999 99.998,49.999 49.999,0 0,49.999 -0.001,49.999 -0.001,50 0,50 49.999,99.999 99.998,50 99.999,50 
	99.998,50 "/>
</g></g><g transform="translate(440,264) scale(0.44,0.44)"><g transform="" style="fill: rgb(0, 0, 0);">
<g>
	<path d="M100,59.375V0H0v59.375L50,100L100,59.375z"/>
</g>
</g></g><g transform="translate(528,264) scale(0.44,0.44)"><g transform="" style="fill: rgb(0, 0, 0);">
<polygon points="99.999,49.999 99.998,49.999 49.999,0 0,49.999 -0.001,49.999 -0.001,50 0,50 49.999,99.999 99.998,50 99.999,50 
	99.998,50 "/>
</g></g><g transform="translate(616,264) scale(0.44,0.44)"><g transform="" style="fill: rgb(0, 0, 0);">
<polygon points="99.999,49.999 99.998,49.999 49.999,0 0,49.999 -0.001,49.999 -0.001,50 0,50 49.999,99.999 99.998,50 99.999,50 
	99.998,50 "/>
</g></g><g transform="translate(704,264) scale(0.44,0.44)"><g transform="" style="fill: rgb(0, 0, 0);">
<rect width="100" height="100"/>
</g></g><g transform="translate(792,264) scale(0.44,0.44)"><g transform="" style="fill: rgb(0, 0, 0);">
<g>
	<path d="M100,59.375V0H0v59.375L50,100L100,59.375z"/>
</g>
</g></g><g transform="translate(880,264) scale(0.44,0.44)"><g transform="" style="fill: rgb(0, 0, 0);">
<rect width="100" height="100"/>
</g></g><g transform="translate(396,308) scale(0.44,0.44)"><g transform="" style="fill: rgb(0, 0, 0);">
<polygon points="99.999,49.999 99.998,49.999 49.999,0 0,49.999 -0.001,49.999 -0.001,50 0,50 49.999,99.999 99.998,50 99.999,50 
	99.998,50 "/>
</g></g><g transform="translate(484,308) scale(0.44,0.44)"><g transform="" style="fill: rgb(0, 0, 0);">
<polygon points="99.999,49.999 99.998,49.999 49.999,0 0,49.999 -0.001,49.999 -0.001,50 0,50 49.999,99.999 99.998,50 99.999,50 
	99.998,50 "/>
</g></g><g transform="translate(572,308) scale(0.44,0.44)"><g transform="" style="fill: rgb(0, 0, 0);">
<g>
	<path d="M100,40.625V100H0V40.625L50,0L100,40.625z"/>
</g>
</g></g><g transform="translate(660,308) scale(0.44,0.44)"><g transform="" style="fill: rgb(0, 0, 0);">
<g>
	<path d="M40.625,0H100v100H40.625L0,50L40.625,0z"/>
</g>
</g></g><g transform="translate(704,308) scale(0.44,0.44)"><g transform="" style="fill: rgb(0, 0, 0);">
<g>
	<path d="M100,65.625V0H0v100h65.625"/>
</g>
</g></g><g transform="translate(880,308) scale(0.44,0.44)"><g transform="" style="fill: rgb(0, 0, 0);">
<g>
	<path d="M100,59.375V0H0v59.375L50,100L100,59.375z"/>
</g>
</g></g><g transform="translate(0,352) scale(0.44,0.44)"><g transform="" style="fill: rgb(0, 0, 0);">
<g>
	<path d="M100,40.625V100H0V40.625L50,0L100,40.625z"/>
</g>
</g></g><g transform="translate(132,352) scale(0.44,0.44)"><g transform="" style="fill: rgb(0, 0, 0);">
<g>
	<path d="M0,34.375V100h100V34.375V0H34.375"/>
</g>
</g></g><g transform="translate(176,352) scale(0.44,0.44)"><g transform="" style="fill: rgb(0, 0, 0);">
<rect width="100" height="100"/>
</g></g><g transform="translate(220,352) scale(0.44,0.44)"><g transform="" style="fill: rgb(0, 0, 0);">
<rect width="100" height="100"/>
</g></g><g transform="translate(264,352) scale(0.44,0.44)"><g transform="" style="fill: rgb(0, 0, 0);">
<rect width="100" height="100"/>
</g></g><g transform="translate(308,352) scale(0.44,0.44)"><g transform="" style="fill: rgb(0, 0, 0);">
<rect width="100" height="100"/>
</g></g><g transform="translate(352,352) scale(0.44,0.44)"><g transform="" style="fill: rgb(0, 0, 0);">
<g>
	<path d="M59.375,0H0v100h59.375L100,50L59.375,0z"/>
</g>
</g></g><g transform="translate(440,352) scale(0.44,0.44)"><g transform="" style="fill: rgb(0, 0, 0);">
<polygon points="99.999,49.999 99.998,49.999 49.999,0 0,49.999 -0.001,49.999 -0.001,50 0,50 49.999,99.999 99.998,50 99.999,50 
	99.998,50 "/>
</g></g><g transform="translate(528,352) scale(0.44,0.44)"><g transform="" style="fill: rgb(0, 0, 0);">
<g>
	<path d="M40.625,0H100v100H40.625L0,50L40.625,0z"/>
</g>
</g></g><g transform="translate(572,352) scale(0.44,0.44)"><g transform="" style="fill: rgb(0, 0, 0);">
<rect width="100" height="100"/>
</g></g><g transform="translate(748,352) scale(0.44,0.44)"><g transform="" style="fill: rgb(0, 0, 0);">
<g>
	<path d="M100,40.625V100H0V40.625L50,0L100,40.625z"/>
</g>
</g></g><g transform="translate(836,352) scale(0.44,0.44)"><g transform="" style="fill: rgb(0, 0, 0);">
<g>
	<path d="M100,40.625V100H0V40.625L50,0L100,40.625z"/>
</g>
</g></g><g transform="translate(924,352) scale(0.44,0.44)"><g transform="" style="fill: rgb(0, 0, 0);">
<polygon points="99.999,49.999 99.998,49.999 49.999,0 0,49.999 -0.001,49.999 -0.001,50 0,50 49.999,99.999 99.998,50 99.999,50 
	99.998,50 "/>
</g></g><g transform="translate(1056,352) scale(0.44,0.44)"><g transform="" style="fill: rgb(0, 0, 0);">
<g>
	<path d="M100,40.625V100H0V40.625L50,0L100,40.625z"/>
</g>
</g></g><g transform="translate(1144,352) scale(0.44,0.44)"><g transform="" style="fill: rgb(0, 0, 0);">
<g>
	<path d="M0,34.375V100h100V34.375V0H34.375"/>
</g>
</g></g><g transform="translate(1188,352) scale(0.44,0.44)"><g transform="" style="fill: rgb(0, 0, 0);">
<rect width="100" height="100"/>
</g></g><g transform="translate(1232,352) scale(0.44,0.44)"><g transform="" style="fill: rgb(0, 0, 0);">
<g>
	<path d="M59.375,0H0v100h59.375L100,50L59.375,0z"/>
</g>
</g></g><g transform="translate(0,396) scale(0.44,0.44)"><g transform="" style="fill: rgb(0, 0, 0);">
<g>
	<path d="M100,59.375V0H0v59.375L50,100L100,59.375z"/>
</g>
</g></g><g transform="translate(88,396) scale(0.44,0.44)"><g transform="" style="fill: rgb(0, 0, 0);">
<g>
	<path d="M40.625,0H100v100H40.625L0,50L40.625,0z"/>
</g>
</g></g><g transform="translate(132,396) scale(0.44,0.44)"><g transform="" style="fill: rgb(0, 0, 0);">
<rect width="100" height="100"/>
</g></g><g transform="translate(176,396) scale(0.44,0.44)"><g transform="" style="fill: rgb(0, 0, 0);">
<rect width="100" height="100"/>
</g></g><g transform="translate(220,396) scale(0.44,0.44)"><g transform="" style="fill: rgb(0, 0, 0);">
<rect width="100" height="100"/>
</g></g><g transform="translate(396,396) scale(0.44,0.44)"><g transform="" style="fill: rgb(0, 0, 0);">
<g>
	<path d="M100,40.625V100H0V40.625L50,0L100,40.625z"/>
</g>
</g></g><g transform="translate(484,396) scale(0.44,0.44)"><g transform="" style="fill: rgb(0, 0, 0);">
<polygon points="99.999,49.999 99.998,49.999 49.999,0 0,49.999 -0.001,49.999 -0.001,50 0,50 49.999,99.999 99.998,50 99.999,50 
	99.998,50 "/>
</g></g><g transform="translate(572,396) scale(0.44,0.44)"><g transform="" style="fill: rgb(0, 0, 0);">
<rect width="100" height="100"/>
</g></g><g transform="translate(704,396) scale(0.44,0.44)"><g transform="" style="fill: rgb(0, 0, 0);">
<g>
	<path d="M0,34.375V100h100V34.375V0H34.375"/>
</g>
</g></g><g transform="translate(748,396) scale(0.44,0.44)"><g transform="" style="fill: rgb(0, 0, 0);">
<rect width="100" height="100"/>
</g></g><g transform="translate(792,396) scale(0.44,0.44)"><g transform="" style="fill: rgb(0, 0, 0);">
<rect width="100" height="100"/>
</g></g><g transform="translate(836,396) scale(0.44,0.44)"><g transform="" style="fill: rgb(0, 0, 0);">
<g>
	<path d="M100,65.625V0H0v100h65.625"/>
</g>
</g></g><g transform="translate(1056,396) scale(0.44,0.44)"><g transform="" style="fill: rgb(0, 0, 0);">
<rect width="100" height="100"/>
</g></g><g transform="translate(1144,396) scale(0.44,0.44)"><g transform="" style="fill: rgb(0, 0, 0);">
<rect width="100" height="100"/>
</g></g><g transform="translate(1188,396) scale(0.44,0.44)"><g transform="" style="fill: rgb(0, 0, 0);">
<g>
	<path d="M100,65.625V0H0v100h65.625"/>
</g>
</g></g><g transform="translate(132,440) scale(0.44,0.44)"><g transform="" style="fill: rgb(0, 0, 0);">
<g>
	<path d="M34.375,100H100V0H0v65.625"/>
</g>
</g></g><g transform="translate(176,440) scale(0.44,0.44)"><g transform="" style="fill: rgb(0, 0, 0);">
<rect width="100" height="100"/>
</g></g><g transform="translate(220,440) scale(0.44,0.44)"><g transform="" style="fill: rgb(0, 0, 0);">
<rect width="100" height="100"/>
</g></g><g transform="translate(264,440) scale(0.44,0.44)"><g transform="" style="fill: rgb(0, 0, 0);">
<rect width="100" height="100"/>
</g></g><g transform="translate(308,440) scale(0.44,0.44)"><g transform="" style="fill: rgb(0, 0, 0);">
<g>
	<path d="M100,34.375L65.625,0H0v100h100V34.375z"/>
</g>
</g></g><g transform="translate(396,440) scale(0.44,0.44)"><g transform="" style="fill: rgb(0, 0, 0);">
<g>
	<path d="M100,59.375V0H0v59.375L50,100L100,59.375z"/>
</g>
</g></g><g transform="translate(572,440) scale(0.44,0.44)"><g transform="" style="fill: rgb(0, 0, 0);">
<rect width="100" height="100"/>
</g></g><g transform="translate(660,440) scale(0.44,0.44)"><g transform="" style="fill: rgb(0, 0, 0);">
<g>
	<path d="M40.625,0H100v100H40.625L0,50L40.625,0z"/>
</g>
</g></g><g transform="translate(704,440) scale(0.44,0.44)"><g transform="" style="fill: rgb(0, 0, 0);">
<rect width="100" height="100"/>
</g></g><g transform="translate(968,440) scale(0.44,0.44)"><g transform="" style="fill: rgb(0, 0, 0);">
<polygon points="99.999,49.999 99.998,49.999 49.999,0 0,49.999 -0.001,49.999 -0.001,50 0,50 49.999,99.999 99.998,50 99.999,50 
	99.998,50 "/>
</g></g><g transform="translate(1056,440) scale(0.44,0.44)"><g transform="" style="fill: rgb(0, 0, 0);">
<rect width="100" height="100"/>
</g></g><g transform="translate(1144,440) scale(0.44,0.44)"><g transform="" style="fill: rgb(0, 0, 0);">
<g>
	<path d="M100,59.375V0H0v59.375L50,100L100,59.375z"/>
</g>
</g></g><g transform="translate(0,484) scale(0.44,0.44)"><g transform="" style="fill: rgb(0, 0, 0);">
<polygon points="99.999,49.999 99.998,49.999 49.999,0 0,49.999 -0.001,49.999 -0.001,50 0,50 49.999,99.999 99.998,50 99.999,50 
	99.998,50 "/>
</g></g><g transform="translate(88,484) scale(0.44,0.44)"><g transform="" style="fill: rgb(0, 0, 0);">
<g>
	<path d="M100,40.625V100H0V40.625L50,0L100,40.625z"/>
</g>
</g></g><g transform="translate(308,484) scale(0.44,0.44)"><g transform="" style="fill: rgb(0, 0, 0);">
<g>
	<path d="M100,59.375V0H0v59.375L50,100L100,59.375z"/>
</g>
</g></g><g transform="translate(440,484) scale(0.44,0.44)"><g transform="" style="fill: rgb(0, 0, 0);">
<g>
	<path d="M100,40.625V100H0V40.625L50,0L100,40.625z"/>
</g>
</g></g><g transform="translate(572,484) scale(0.44,0.44)"><g transform="" style="fill: rgb(0, 0, 0);">
<rect width="100" height="100"/>
</g></g><g transform="translate(704,484) scale(0.44,0.44)"><g transform="" style="fill: rgb(0, 0, 0);">
<rect width="100" height="100"/>
</g></g><g transform="translate(748,484) scale(0.44,0.44)"><g transform="" style="fill: rgb(0, 0, 0);">
<g>
	<path d="M59.375,0H0v100h59.375L100,50L59.375,0z"/>
</g>
</g></g><g transform="translate(924,484) scale(0.44,0.44)"><g transform="" style="fill: rgb(0, 0, 0);">
<polygon points="99.999,49.999 99.998,49.999 49.999,0 0,49.999 -0.001,49.999 -0.001,50 0,50 49.999,99.999 99.998,50 99.999,50 
	99.998,50 "/>
</g></g><g transform="translate(1056,484) scale(0.44,0.44)"><g transform="" style="fill: rgb(0, 0, 0);">
<g>
	<path d="M34.375,100H100V0H0v65.625"/>
</g>
</g></g><g transform="translate(1100,484) scale(0.44,0.44)"><g transform="" style="fill: rgb(0, 0, 0);">
<g>
	<path d="M59.375,0H0v100h59.375L100,50L59.375,0z"/>
</g>
</g></g><g transform="translate(1232,484) scale(0.44,0.44)"><g transform="" style="fill: rgb(0, 0, 0);">
<g>
	<path d="M100,40.625V100H0V40.625L50,0L100,40.625z"/>
</g>
</g></g><g transform="translate(88,528) scale(0.44,0.44)"><g transform="" style="fill: rgb(0, 0, 0);">
<g>
	<path d="M34.375,100H100V0H0v65.625"/>
</g>
</g></g><g transform="translate(132,528) scale(0.44,0.44)"><g transform="" style="fill: rgb(0, 0, 0);">
<g>
	<path d="M100,34.375L65.625,0H0v100h100V34.375z"/>
</g>
</g></g><g transform="translate(220,528) scale(0.44,0.44)"><g transform="" style="fill: rgb(0, 0, 0);">
<g>
	<path d="M40.625,0H100v100H40.625L0,50L40.625,0z"/>
</g>
</g></g><g transform="translate(264,528) scale(0.44,0.44)"><g transform="" style="fill: rgb(0, 0, 0);">
<g>
	<path d="M59.375,0H0v100h59.375L100,50L59.375,0z"/>
</g>
</g></g><g transform="translate(352,528) scale(0.44,0.44)"><g transform="" style="fill: rgb(0, 0, 0);">
<g>
	<path d="M40.625,0H100v100H40.625L0,50L40.625,0z"/>
</g>
</g></g><g transform="translate(396,528) scale(0.44,0.44)"><g transform="" style="fill: rgb(0, 0, 0);">
<rect width="100" height="100"/>
</g></g><g transform="translate(440,528) scale(0.44,0.44)"><g transform="" style="fill: rgb(0, 0, 0);">
<rect width="100" height="100"/>
</g></g><g transform="translate(484,528) scale(0.44,0.44)"><g transform="" style="fill: rgb(0, 0, 0);">
<rect width="100" height="100"/>
</g></g><g transform="translate(528,528) scale(0.44,0.44)"><g transform="" style="fill: rgb(0, 0, 0);">
<rect width="100" height="100"/>
</g></g><g transform="translate(572,528) scale(0.44,0.44)"><g transform="" style="fill: rgb(0, 0, 0);">
<rect width="100" height="100"/>
</g></g><g transform="translate(660,528) scale(0.44,0.44)"><g transform="" style="fill: rgb(0, 0, 0);">
<g>
	<path d="M40.625,0H100v100H40.625L0,50L40.625,0z"/>
</g>
</g></g><g transform="translate(704,528) scale(0.44,0.44)"><g transform="" style="fill: rgb(0, 0, 0);">
<rect width="100" height="100"/>
</g></g><g transform="translate(880,528) scale(0.44,0.44)"><g transform="" style="fill: rgb(0, 0, 0);">
<polygon points="99.999,49.999 99.998,49.999 49.999,0 0,49.999 -0.001,49.999 -0.001,50 0,50 49.999,99.999 99.998,50 99.999,50 
	99.998,50 "/>
</g></g><g transform="translate(968,528) scale(0.44,0.44)"><g transform="" style="fill: rgb(0, 0, 0);">
<g>
	<path d="M40.625,0H100v100H40.625L0,50L40.625,0z"/>
</g>
</g></g><g transform="translate(1012,528) scale(0.44,0.44)"><g transform="" style="fill: rgb(0, 0, 0);">
<g>
	<path d="M100,34.375L65.625,0H0v100h100V34.375z"/>
</g>
</g></g><g transform="translate(1232,528) scale(0.44,0.44)"><g transform="" style="fill: rgb(0, 0, 0);">
<rect width="100" height="100"/>
</g></g><g transform="translate(0,572) scale(0.44,0.44)"><g transform="" style="fill: rgb(0, 0, 0);">
<g>
	<path d="M0,34.375V100h100V34.375V0H34.375"/>
</g>
</g></g><g transform="translate(44,572) scale(0.44,0.44)"><g transform="" style="fill: rgb(0, 0, 0);">
<g>
	<path d="M100,34.375L65.625,0H0v100h100V34.375z"/>
</g>
</g></g><g transform="translate(132,572) scale(0.44,0.44)"><g transform="" style="fill: rgb(0, 0, 0);">
<rect width="100" height="100"/>
</g></g><g transform="translate(176,572) scale(0.44,0.44)"><g transform="" style="fill: rgb(0, 0, 0);">
<g>
	<path d="M100,34.375L65.625,0H0v100h100V34.375z"/>
</g>
</g></g><g transform="translate(484,572) scale(0.44,0.44)"><g transform="" style="fill: rgb(0, 0, 0);">
<g>
	<path d="M34.375,100H100V0H0v65.625"/>
</g>
</g></g><g transform="translate(528,572) scale(0.44,0.44)"><g transform="" style="fill: rgb(0, 0, 0);">
<rect width="100" height="100"/>
</g></g><g transform="translate(572,572) scale(0.44,0.44)"><g transform="" style="fill: rgb(0, 0, 0);">
<rect width="100" height="100"/>
</g></g><g transform="translate(616,572) scale(0.44,0.44)"><g transform="" style="fill: rgb(0, 0, 0);">
<g>
	<path d="M59.375,0H0v100h59.375L100,50L59.375,0z"/>
</g>
</g></g><g transform="translate(704,572) scale(0.44,0.44)"><g transform="" style="fill: rgb(0, 0, 0);">
<rect width="100" height="100"/>
</g></g><g transform="translate(748,572) scale(0.44,0.44)"><g transform="" style="fill: rgb(0, 0, 0);">
<rect width="100" height="100"/>
</g></g><g transform="translate(792,572) scale(0.44,0.44)"><g transform="" style="fill: rgb(0, 0, 0);">
<g>
	<path d="M59.375,0H0v100h59.375L100,50L59.375,0z"/>
</g>
</g></g><g transform="translate(1012,572) scale(0.44,0.44)"><g transform="" style="fill: rgb(0, 0, 0);">
<rect width="100" height="100"/>
</g></g><g transform="translate(1056,572) scale(0.44,0.44)"><g transform="" style="fill: rgb(0, 0, 0);">
<rect width="100" height="100"/>
</g></g><g transform="translate(1100,572) scale(0.44,0.44)"><g transform="" style="fill: rgb(0, 0, 0);">
<rect width="100" height="100"/>
</g></g><g transform="translate(1144,572) scale(0.44,0.44)"><g transform="" style="fill: rgb(0, 0, 0);">
<rect width="100" height="100"/>
</g></g><g transform="translate(1188,572) scale(0.44,0.44)"><g transform="" style="fill: rgb(0, 0, 0);">
<rect width="100" height="100"/>
</g></g><g transform="translate(1232,572) scale(0.44,0.44)"><g transform="" style="fill: rgb(0, 0, 0);">
<rect width="100" height="100"/>
</g></g><g transform="translate(0,616) scale(0.44,0.44)"><g transform="" style="fill: rgb(0, 0, 0);">
<rect width="100" height="100"/>
</g></g><g transform="translate(44,616) scale(0.44,0.44)"><g transform="" style="fill: rgb(0, 0, 0);">
<g>
	<path d="M100,65.625V0H0v100h65.625"/>
</g>
</g></g><g transform="translate(132,616) scale(0.44,0.44)"><g transform="" style="fill: rgb(0, 0, 0);">
<g>
	<path d="M34.375,100H100V0H0v65.625"/>
</g>
</g></g><g transform="translate(176,616) scale(0.44,0.44)"><g transform="" style="fill: rgb(0, 0, 0);">
<rect width="100" height="100"/>
</g></g><g transform="translate(220,616) scale(0.44,0.44)"><g transform="" style="fill: rgb(0, 0, 0);">
<rect width="100" height="100"/>
</g></g><g transform="translate(264,616) scale(0.44,0.44)"><g transform="" style="fill: rgb(0, 0, 0);">
<g>
	<path d="M59.375,0H0v100h59.375L100,50L59.375,0z"/>
</g>
</g></g><g transform="translate(572,616) scale(0.44,0.44)"><g transform="" style="fill: rgb(0, 0, 0);">
<g>
	<path d="M100,59.375V0H0v59.375L50,100L100,59.375z"/>
</g>
</g></g><g transform="translate(704,616) scale(0.44,0.44)"><g transform="" style="fill: rgb(0, 0, 0);">
<g>
	<path d="M34.375,100H100V0H0v65.625"/>
</g>
</g></g><g transform="translate(748,616) scale(0.44,0.44)"><g transform="" style="fill: rgb(0, 0, 0);">
<g>
	<path d="M100,65.625V0H0v100h65.625"/>
</g>
</g></g><g transform="translate(836,616) scale(0.44,0.44)"><g transform="" style="fill: rgb(0, 0, 0);">
<g>
	<path d="M100,40.625V100H0V40.625L50,0L100,40.625z"/>
</g>
</g></g><g transform="translate(1012,616) scale(0.44,0.44)"><g transform="" style="fill: rgb(0, 0, 0);">
<rect width="100" height="100"/>
</g></g><g transform="translate(1056,616) scale(0.44,0.44)"><g transform="" style="fill: rgb(0, 0, 0);">
<g>
	<path d="M100,65.625V0H0v100h65.625"/>
</g>
</g></g><g transform="translate(1144,616) scale(0.44,0.44)"><g transform="" style="fill: rgb(0, 0, 0);">
<rect width="100" height="100"/>
</g></g><g transform="translate(1232,616) scale(0.44,0.44)"><g transform="" style="fill: rgb(0, 0, 0);">
<rect width="100" height="100"/>
</g></g><g transform="translate(0,660) scale(0.44,0.44)"><g transform="" style="fill: rgb(0, 0, 0);">
<rect width="100" height="100"/>
</g></g><g transform="translate(88,660) scale(0.44,0.44)"><g transform="" style="fill: rgb(0, 0, 0);">
<polygon points="99.999,49.999 99.998,49.999 49.999,0 0,49.999 -0.001,49.999 -0.001,50 0,50 49.999,99.999 99.998,50 99.999,50 
	99.998,50 "/>
</g></g><g transform="translate(484,660) scale(0.44,0.44)"><g transform="" style="fill: rgb(0, 0, 0);">
<g>
	<path d="M100,40.625V100H0V40.625L50,0L100,40.625z"/>
</g>
</g></g><g transform="translate(660,660) scale(0.44,0.44)"><g transform="" style="fill: rgb(0, 0, 0);">
<polygon points="99.999,49.999 99.998,49.999 49.999,0 0,49.999 -0.001,49.999 -0.001,50 0,50 49.999,99.999 99.998,50 99.999,50 
	99.998,50 "/>
</g></g><g transform="translate(792,660) scale(0.44,0.44)"><g transform="" style="fill: rgb(0, 0, 0);">
<g>
	<path d="M40.625,0H100v100H40.625L0,50L40.625,0z"/>
</g>
</g></g><g transform="translate(836,660) scale(0.44,0.44)"><g transform="" style="fill: rgb(0, 0, 0);">
<g>
	<path d="M100,65.625V0H0v100h65.625"/>
</g>
</g></g><g transform="translate(1012,660) scale(0.44,0.44)"><g transform="" style="fill: rgb(0, 0, 0);">
<rect width="100" height="100"/>
</g></g><g transform="translate(1144,660) scale(0.44,0.44)"><g transform="" style="fill: rgb(0, 0, 0);">
<g>
	<path d="M100,59.375V0H0v59.375L50,100L100,59.375z"/>
</g>
</g></g><g transform="translate(1232,660) scale(0.44,0.44)"><g transform="" style="fill: rgb(0, 0, 0);">
<g>
	<path d="M100,59.375V0H0v59.375L50,100L100,59.375z"/>
</g>
</g></g><g transform="translate(0,704) scale(0.44,0.44)"><g transform="" style="fill: rgb(0, 0, 0);">
<rect width="100" height="100"/>
</g></g><g transform="translate(44,704) scale(0.44,0.44)"><g transform="" style="fill: rgb(0, 0, 0);">
<g>
	<path d="M100,34.375L65.625,0H0v100h100V34.375z"/>
</g>
</g></g><g transform="translate(132,704) scale(0.44,0.44)"><g transform="" style="fill: rgb(0, 0, 0);">
<g>
	<path d="M100,40.625V100H0V40.625L50,0L100,40.625z"/>
</g>
</g></g><g transform="translate(220,704) scale(0.44,0.44)"><g transform="" style="fill: rgb(0, 0, 0);">
<g>
	<path d="M40.625,0H100v100H40.625L0,50L40.625,0z"/>
</g>
</g></g><g transform="translate(264,704) scale(0.44,0.44)"><g transform="" style="fill: rgb(0, 0, 0);">
<rect width="100" height="100"/>
</g></g><g transform="translate(308,704) scale(0.44,0.44)"><g transform="" style="fill: rgb(0, 0, 0);">
<rect width="100" height="100"/>
</g></g><g transform="translate(352,704) scale(0.44,0.44)"><g transform="" style="fill: rgb(0, 0, 0);">
<g>
	<path d="M59.375,0H0v100h59.375L100,50L59.375,0z"/>
</g>
</g></g><g transform="translate(484,704) scale(0.44,0.44)"><g transform="" style="fill: rgb(0, 0, 0);">
<rect width="100" height="100"/>
</g></g><g transform="translate(528,704) scale(0.44,0.44)"><g transform="" style="fill: rgb(0, 0, 0);">
<g>
	<path d="M100,34.375L65.625,0H0v100h100V34.375z"/>
</g>
</g></g><g transform="translate(616,704) scale(0.44,0.44)"><g transform="" style="fill: rgb(0, 0, 0);">
<g>
	<path d="M100,40.625V100H0V40.625L50,0L100,40.625z"/>
</g>
</g></g><g transform="translate(704,704) scale(0.44,0.44)"><g transform="" style="fill: rgb(0, 0, 0);">
<g>
	<path d="M0,34.375V100h100V34.375V0H34.375"/>
</g>
</g></g><g transform="translate(748,704) scale(0.44,0.44)"><g transform="" style="fill: rgb(0, 0, 0);">
<g>
	<path d="M59.375,0H0v100h59.375L100,50L59.375,0z"/>
</g>
</g></g><g transform="translate(880,704) scale(0.44,0.44)"><g transform="" style="fill: rgb(0, 0, 0);">
<g>
	<path d="M100,40.625V100H0V40.625L50,0L100,40.625z"/>
</g>
</g></g><g transform="translate(1012,704) scale(0.44,0.44)"><g transform="" style="fill: rgb(0, 0, 0);">
<g>
	<path d="M100,59.375V0H0v59.375L50,100L100,59.375z"/>
</g>
</g></g><g transform="translate(1100,704) scale(0.44,0.44)"><g transform="" style="fill: rgb(0, 0, 0);">
<polygon points="99.999,49.999 99.998,49.999 49.999,0 0,49.999 -0.001,49.999 -0.001,50 0,50 49.999,99.999 99.998,50 99.999,50 
	99.998,50 "/>
</g></g><g transform="translate(0,748) scale(0.44,0.44)"><g transform="" style="fill: rgb(0, 0, 0);">
<rect width="100" height="100"/>
</g></g><g transform="translate(44,748) scale(0.44,0.44)"><g transform="" style="fill: rgb(0, 0, 0);">
<rect width="100" height="100"/>
</g></g><g transform="translate(132,748) scale(0.44,0.44)"><g transform="" style="fill: rgb(0, 0, 0);">
<rect width="100" height="100"/>
</g></g><g transform="translate(176,748) scale(0.44,0.44)"><g transform="" style="fill: rgb(0, 0, 0);">
<g>
	<path d="M100,34.375L65.625,0H0v100h100V34.375z"/>
</g>
</g></g><g transform="translate(440,748) scale(0.44,0.44)"><g transform="" style="fill: rgb(0, 0, 0);">
<g>
	<path d="M40.625,0H100v100H40.625L0,50L40.625,0z"/>
</g>
</g></g><g transform="translate(484,748) scale(0.44,0.44)"><g transform="" style="fill: rgb(0, 0, 0);">
<rect width="100" height="100"/>
</g></g><g transform="translate(528,748) scale(0.44,0.44)"><g transform="" style="fill: rgb(0, 0, 0);">
<rect width="100" height="100"/>
</g></g><g transform="translate(572,748) scale(0.44,0.44)"><g transform="" style="fill: rgb(0, 0, 0);">
<rect width="100" height="100"/>
</g></g><g transform="translate(616,748) scale(0.44,0.44)"><g transform="" style="fill: rgb(0, 0, 0);">
<g>
	<path d="M100,65.625V0H0v100h65.625"/>
</g>
</g></g><g transform="translate(704,748) scale(0.44,0.44)"><g transform="" style="fill: rgb(0, 0, 0);">
<g>
	<path d="M100,59.375V0H0v59.375L50,100L100,59.375z"/>
</g>
</g></g><g transform="translate(836,748) scale(0.44,0.44)"><g transform="" style="fill: rgb(0, 0, 0);">
<g>
	<path d="M0,34.375V100h100V34.375V0H34.375"/>
</g>
</g></g><g transform="translate(880,748) scale(0.44,0.44)"><g transform="" style="fill: rgb(0, 0, 0);">
<rect width="100" height="100"/>
</g></g><g transform="translate(924,748) scale(0.44,0.44)"><g transform="" style="fill: rgb(0, 0, 0);">
<rect width="100" height="100"/>
</g></g><g transform="translate(968,748) scale(0.44,0.44)"><g transform="" style="fill: rgb(0, 0, 0);">
<g>
	<path d="M59.375,0H0v100h59.375L100,50L59.375,0z"/>
</g>
</g></g><g transform="translate(1056,748) scale(0.44,0.44)"><g transform="" style="fill: rgb(0, 0, 0);">
<polygon points="99.999,49.999 99.998,49.999 49.999,0 0,49.999 -0.001,49.999 -0.001,50 0,50 49.999,99.999 99.998,50 99.999,50 
	99.998,50 "/>
</g></g><g transform="translate(1144,748) scale(0.44,0.44)"><g transform="" style="fill: rgb(0, 0, 0);">
<g>
	<path d="M40.625,0H100v100H40.625L0,50L40.625,0z"/>
</g>
</g></g><g transform="translate(1188,748) scale(0.44,0.44)"><g transform="" style="fill: rgb(0, 0, 0);">
<g>
	<path d="M59.375,0H0v100h59.375L100,50L59.375,0z"/>
</g>
</g></g><g transform="translate(0,792) scale(0.44,0.44)"><g transform="" style="fill: rgb(0, 0, 0);">
<rect width="100" height="100"/>
</g></g><g transform="translate(44,792) scale(0.44,0.44)"><g transform="" style="fill: rgb(0, 0, 0);">
<rect width="100" height="100"/>
</g></g><g transform="translate(132,792) scale(0.44,0.44)"><g transform="" style="fill: rgb(0, 0, 0);">
<rect width="100" height="100"/>
</g></g><g transform="translate(176,792) scale(0.44,0.44)"><g transform="" style="fill: rgb(0, 0, 0);">
<g>
	<path d="M100,65.625V0H0v100h65.625"/>
</g>
</g></g><g transform="translate(264,792) scale(0.44,0.44)"><g transform="" style="fill: rgb(0, 0, 0);">
<g>
	<path d="M40.625,0H100v100H40.625L0,50L40.625,0z"/>
</g>
</g></g><g transform="translate(308,792) scale(0.44,0.44)"><g transform="" style="fill: rgb(0, 0, 0);">
<rect width="100" height="100"/>
</g></g><g transform="translate(352,792) scale(0.44,0.44)"><g transform="" style="fill: rgb(0, 0, 0);">
<g>
	<path d="M59.375,0H0v100h59.375L100,50L59.375,0z"/>
</g>
</g></g><g transform="translate(528,792) scale(0.44,0.44)"><g transform="" style="fill: rgb(0, 0, 0);">
<g>
	<path d="M100,59.375V0H0v59.375L50,100L100,59.375z"/>
</g>
</g></g><g transform="translate(660,792) scale(0.44,0.44)"><g transform="" style="fill: rgb(0, 0, 0);">
<polygon points="99.999,49.999 99.998,49.999 49.999,0 0,49.999 -0.001,49.999 -0.001,50 0,50 49.999,99.999 99.998,50 99.999,50 
	99.998,50 "/>
</g></g><g transform="translate(836,792) scale(0.44,0.44)"><g transform="" style="fill: rgb(0, 0, 0);">
<rect width="100" height="100"/>
</g></g><g transform="translate(1012,792) scale(0.44,0.44)"><g transform="" style="fill: rgb(0, 0, 0);">
<g>
	<path d="M100,40.625V100H0V40.625L50,0L100,40.625z"/>
</g>
</g></g><g transform="translate(1100,792) scale(0.44,0.44)"><g transform="" style="fill: rgb(0, 0, 0);">
<g>
	<path d="M100,40.625V100H0V40.625L50,0L100,40.625z"/>
</g>
</g></g><g transform="translate(1232,792) scale(0.44,0.44)"><g transform="" style="fill: rgb(0, 0, 0);">
<polygon points="99.999,49.999 99.998,49.999 49.999,0 0,49.999 -0.001,49.999 -0.001,50 0,50 49.999,99.999 99.998,50 99.999,50 
	99.998,50 "/>
</g></g><g transform="translate(0,836) scale(0.44,0.44)"><g transform="" style="fill: rgb(0, 0, 0);">
<rect width="100" height="100"/>
</g></g><g transform="translate(44,836) scale(0.44,0.44)"><g transform="" style="fill: rgb(0, 0, 0);">
<rect width="100" height="100"/>
</g></g><g transform="translate(88,836) scale(0.44,0.44)"><g transform="" style="fill: rgb(0, 0, 0);">
<rect width="100" height="100"/>
</g></g><g transform="translate(132,836) scale(0.44,0.44)"><g transform="" style="fill: rgb(0, 0, 0);">
<g>
	<path d="M100,65.625V0H0v100h65.625"/>
</g>
</g></g><g transform="translate(220,836) scale(0.44,0.44)"><g transform="" style="fill: rgb(0, 0, 0);">
<g>
	<path d="M100,40.625V100H0V40.625L50,0L100,40.625z"/>
</g>
</g></g><g transform="translate(308,836) scale(0.44,0.44)"><g transform="" style="fill: rgb(0, 0, 0);">
<g>
	<path d="M100,59.375V0H0v59.375L50,100L100,59.375z"/>
</g>
</g></g><g transform="translate(440,836) scale(0.44,0.44)"><g transform="" style="fill: rgb(0, 0, 0);">
<g>
	<path d="M0,34.375V100h100V34.375V0H34.375"/>
</g>
</g></g><g transform="translate(484,836) scale(0.44,0.44)"><g transform="" style="fill: rgb(0, 0, 0);">
<g>
	<path d="M100,34.375L65.625,0H0v100h100V34.375z"/>
</g>
</g></g><g transform="translate(616,836) scale(0.44,0.44)"><g transform="" style="fill: rgb(0, 0, 0);">
<g>
	<path d="M100,40.625V100H0V40.625L50,0L100,40.625z"/>
</g>
</g></g><g transform="translate(836,836) scale(0.44,0.44)"><g transform="" style="fill: rgb(0, 0, 0);">
<g>
	<path d="M34.375,100H100V0H0v65.625"/>
</g>
</g></g><g transform="translate(880,836) scale(0.44,0.44)"><g transform="" style="fill: rgb(0, 0, 0);">
<rect width="100" height="100"/>
</g></g><g transform="translate(924,836) scale(0.44,0.44)"><g transform="" style="fill: rgb(0, 0, 0);">
<rect width="100" height="100"/>
</g></g><g transform="translate(968,836) scale(0.44,0.44)"><g transform="" style="fill: rgb(0, 0, 0);">
<rect width="100" height="100"/>
</g></g><g transform="translate(1012,836) scale(0.44,0.44)"><g transform="" style="fill: rgb(0, 0, 0);">
<rect width="100" height="100"/>
</g></g><g transform="translate(1100,836) scale(0.44,0.44)"><g transform="" style="fill: rgb(0, 0, 0);">
<rect width="100" height="100"/>
</g></g><g transform="translate(1144,836) scale(0.44,0.44)"><g transform="" style="fill: rgb(0, 0, 0);">
<g>
	<path d="M100,34.375L65.625,0H0v100h100V34.375z"/>
</g>
</g></g><g transform="translate(0,880) scale(0.44,0.44)"><g transform="" style="fill: rgb(0, 0, 0);">
<g>
	<path d="M34.375,100H100V0H0v65.625"/>
</g>
</g></g><g transform="translate(44,880) scale(0.44,0.44)"><g transform="" style="fill: rgb(0, 0, 0);">
<g>
	<path d="M100,65.625V0H0v100h65.625"/>
</g>
</g></g><g transform="translate(176,880) scale(0.44,0.44)"><g transform="" style="fill: rgb(0, 0, 0);">
<g>
	<path d="M40.625,0H100v100H40.625L0,50L40.625,0z"/>
</g>
</g></g><g transform="translate(220,880) scale(0.44,0.44)"><g transform="" style="fill: rgb(0, 0, 0);">
<rect width="100" height="100"/>
</g></g><g transform="translate(264,880) scale(0.44,0.44)"><g transform="" style="fill: rgb(0, 0, 0);">
<g>
	<path d="M59.375,0H0v100h59.375L100,50L59.375,0z"/>
</g>
</g></g><g transform="translate(352,880) scale(0.44,0.44)"><g transform="" style="fill: rgb(0, 0, 0);">
<g>
	<path d="M100,40.625V100H0V40.625L50,0L100,40.625z"/>
</g>
</g></g><g transform="translate(440,880) scale(0.44,0.44)"><g transform="" style="fill: rgb(0, 0, 0);">
<g>
	<path d="M34.375,100H100V0H0v65.625"/>
</g>
</g></g><g transform="translate(484,880) scale(0.44,0.44)"><g transform="" style="fill: rgb(0, 0, 0);">
<g>
	<path d="M100,65.625V0H0v100h65.625"/>
</g>
</g></g><g transform="translate(572,880) scale(0.44,0.44)"><g transform="" style="fill: rgb(0, 0, 0);">
<g>
	<path d="M40.625,0H100v100H40.625L0,50L40.625,0z"/>
</g>
</g></g><g transform="translate(616,880) scale(0.44,0.44)"><g transform="" style="fill: rgb(0, 0, 0);">
<rect width="100" height="100"/>
</g></g><g transform="translate(660,880) scale(0.44,0.44)"><g transform="" style="fill: rgb(0, 0, 0);">
<rect width="100" height="100"/>
</g></g><g transform="translate(704,880) scale(0.44,0.44)"><g transform="" style="fill: rgb(0, 0, 0);">
<g>
	<path d="M59.375,0H0v100h59.375L100,50L59.375,0z"/>
</g>
</g></g><g transform="translate(880,880) scale(0.44,0.44)"><g transform="" style="fill: rgb(0, 0, 0);">
<rect width="100" height="100"/>
</g></g><g transform="translate(924,880) scale(0.44,0.44)"><g transform="" style="fill: rgb(0, 0, 0);">
<rect width="100" height="100"/>
</g></g><g transform="translate(968,880) scale(0.44,0.44)"><g transform="" style="fill: rgb(0, 0, 0);">
<rect width="100" height="100"/>
</g></g><g transform="translate(1012,880) scale(0.44,0.44)"><g transform="" style="fill: rgb(0, 0, 0);">
<rect width="100" height="100"/>
</g></g><g transform="translate(1056,880) scale(0.44,0.44)"><g transform="" style="fill: rgb(0, 0, 0);">
<rect width="100" height="100"/>
</g></g><g transform="translate(1100,880) scale(0.44,0.44)"><g transform="" style="fill: rgb(0, 0, 0);">
<rect width="100" height="100"/>
</g></g><g transform="translate(1144,880) scale(0.44,0.44)"><g transform="" style="fill: rgb(0, 0, 0);">
<rect width="100" height="100"/>
</g></g><g transform="translate(1188,880) scale(0.44,0.44)"><g transform="" style="fill: rgb(0, 0, 0);">
<g>
	<path d="M59.375,0H0v100h59.375L100,50L59.375,0z"/>
</g>
</g></g><g transform="translate(352,924) scale(0.44,0.44)"><g transform="" style="fill: rgb(0, 0, 0);">
<rect width="100" height="100"/>
</g></g><g transform="translate(616,924) scale(0.44,0.44)"><g transform="" style="fill: rgb(0, 0, 0);">
<rect width="100" height="100"/>
</g></g><g transform="translate(792,924) scale(0.44,0.44)"><g transform="" style="fill: rgb(0, 0, 0);">
<g>
	<path d="M100,40.625V100H0V40.625L50,0L100,40.625z"/>
</g>
</g></g><g transform="translate(880,924) scale(0.44,0.44)"><g transform="" style="fill: rgb(0, 0, 0);">
<rect width="100" height="100"/>
</g></g><g transform="translate(1056,924) scale(0.44,0.44)"><g transform="" style="fill: rgb(0, 0, 0);">
<rect width="100" height="100"/>
</g></g><g transform="translate(1100,924) scale(0.44,0.44)"><g transform="" style="fill: rgb(0, 0, 0);">
<rect width="100" height="100"/>
</g></g><g transform="translate(352,968) scale(0.44,0.44)"><g transform="" style="fill: rgb(0, 0, 0);">
<rect width="100" height="100"/>
</g></g><g transform="translate(440,968) scale(0.44,0.44)"><g transform="" style="fill: rgb(0, 0, 0);">
<g>
	<path d="M100,40.625V100H0V40.625L50,0L100,40.625z"/>
</g>
</g></g><g transform="translate(528,968) scale(0.44,0.44)"><g transform="" style="fill: rgb(0, 0, 0);">
<g>
	<path d="M100,40.625V100H0V40.625L50,0L100,40.625z"/>
</g>
</g></g><g transform="translate(616,968) scale(0.44,0.44)"><g transform="" style="fill: rgb(0, 0, 0);">
<rect width="100" height="100"/>
</g></g><g transform="translate(792,968) scale(0.44,0.44)"><g transform="" style="fill: rgb(0, 0, 0);">
<rect width="100" height="100"/>
</g></g><g transform="translate(836,968) scale(0.44,0.44)"><g transform="" style="fill: rgb(0, 0, 0);">
<rect width="100" height="100"/>
</g></g><g transform="translate(880,968) scale(0.44,0.44)"><g transform="" style="fill: rgb(0, 0, 0);">
<rect width="100" height="100"/>
</g></g><g transform="translate(968,968) scale(0.44,0.44)"><g transform="" style="fill: rgb(0, 0, 0);">
<polygon points="99.999,49.999 99.998,49.999 49.999,0 0,49.999 -0.001,49.999 -0.001,50 0,50 49.999,99.999 99.998,50 99.999,50 
	99.998,50 "/>
</g></g><g transform="translate(1056,968) scale(0.44,0.44)"><g transform="" style="fill: rgb(0, 0, 0);">
<rect width="100" height="100"/>
</g></g><g transform="translate(1100,968) scale(0.44,0.44)"><g transform="" style="fill: rgb(0, 0, 0);">
<g>
	<path d="M100,65.625V0H0v100h65.625"/>
</g>
</g></g><g transform="translate(352,1012) scale(0.44,0.44)"><g transform="" style="fill: rgb(0, 0, 0);">
<rect width="100" height="100"/>
</g></g><g transform="translate(440,1012) scale(0.44,0.44)"><g transform="" style="fill: rgb(0, 0, 0);">
<g>
	<path d="M100,59.375V0H0v59.375L50,100L100,59.375z"/>
</g>
</g></g><g transform="translate(528,1012) scale(0.44,0.44)"><g transform="" style="fill: rgb(0, 0, 0);">
<g>
	<path d="M100,59.375V0H0v59.375L50,100L100,59.375z"/>
</g>
</g></g><g transform="translate(616,1012) scale(0.44,0.44)"><g transform="" style="fill: rgb(0, 0, 0);">
<rect width="100" height="100"/>
</g></g><g transform="translate(660,1012) scale(0.44,0.44)"><g transform="" style="fill: rgb(0, 0, 0);">
<g>
	<path d="M59.375,0H0v100h59.375L100,50L59.375,0z"/>
</g>
</g></g><g transform="translate(748,1012) scale(0.44,0.44)"><g transform="" style="fill: rgb(0, 0, 0);">
<g>
	<path d="M40.625,0H100v100H40.625L0,50L40.625,0z"/>
</g>
</g></g><g transform="translate(792,1012) scale(0.44,0.44)"><g transform="" style="fill: rgb(0, 0, 0);">
<rect width="100" height="100"/>
</g></g><g transform="translate(836,1012) scale(0.44,0.44)"><g transform="" style="fill: rgb(0, 0, 0);">
<rect width="100" height="100"/>
</g></g><g transform="translate(880,1012) scale(0.44,0.44)"><g transform="" style="fill: rgb(0, 0, 0);">
<rect width="100" height="100"/>
</g></g><g transform="translate(1056,1012) scale(0.44,0.44)"><g transform="" style="fill: rgb(0, 0, 0);">
<rect width="100" height="100"/>
</g></g><g transform="translate(352,1056) scale(0.44,0.44)"><g transform="" style="fill: rgb(0, 0, 0);">
<rect width="100" height="100"/>
</g></g><g transform="translate(572,1056) scale(0.44,0.44)"><g transform="" style="fill: rgb(0, 0, 0);">
<g>
	<path d="M40.625,0H100v100H40.625L0,50L40.625,0z"/>
</g>
</g></g><g transform="translate(616,1056) scale(0.44,0.44)"><g transform="" style="fill: rgb(0, 0, 0);">
<g>
	<path d="M100,65.625V0H0v100h65.625"/>
</g>
</g></g><g transform="translate(704,1056) scale(0.44,0.44)"><g transform="" style="fill: rgb(0, 0, 0);">
<polygon points="99.999,49.999 99.998,49.999 49.999,0 0,49.999 -0.001,49.999 -0.001,50 0,50 49.999,99.999 99.998,50 99.999,50 
	99.998,50 "/>
</g></g><g transform="translate(836,1056) scale(0.44,0.44)"><g transform="" style="fill: rgb(0, 0, 0);">
<rect width="100" height="100"/>
</g></g><g transform="translate(880,1056) scale(0.44,0.44)"><g transform="" style="fill: rgb(0, 0, 0);">
<rect width="100" height="100"/>
</g></g><g transform="translate(924,1056) scale(0.44,0.44)"><g transform="" style="fill: rgb(0, 0, 0);">
<rect width="100" height="100"/>
</g></g><g transform="translate(968,1056) scale(0.44,0.44)"><g transform="" style="fill: rgb(0, 0, 0);">
<rect width="100" height="100"/>
</g></g><g transform="translate(1012,1056) scale(0.44,0.44)"><g transform="" style="fill: rgb(0, 0, 0);">
<rect width="100" height="100"/>
</g></g><g transform="translate(1056,1056) scale(0.44,0.44)"><g transform="" style="fill: rgb(0, 0, 0);">
<rect width="100" height="100"/>
</g></g><g transform="translate(1100,1056) scale(0.44,0.44)"><g transform="" style="fill: rgb(0, 0, 0);">
<g>
	<path d="M59.375,0H0v100h59.375L100,50L59.375,0z"/>
</g>
</g></g><g transform="translate(352,1100) scale(0.44,0.44)"><g transform="" style="fill: rgb(0, 0, 0);">
<g>
	<path d="M34.375,100H100V0H0v65.625"/>
</g>
</g></g><g transform="translate(396,1100) scale(0.44,0.44)"><g transform="" style="fill: rgb(0, 0, 0);">
<g>
	<path d="M100,34.375L65.625,0H0v100h100V34.375z"/>
</g>
</g></g><g transform="translate(484,1100) scale(0.44,0.44)"><g transform="" style="fill: rgb(0, 0, 0);">
<polygon points="99.999,49.999 99.998,49.999 49.999,0 0,49.999 -0.001,49.999 -0.001,50 0,50 49.999,99.999 99.998,50 99.999,50 
	99.998,50 "/>
</g></g><g transform="translate(748,1100) scale(0.44,0.44)"><g transform="" style="fill: rgb(0, 0, 0);">
<g>
	<path d="M0,34.375V100h100V34.375V0H34.375"/>
</g>
</g></g><g transform="translate(792,1100) scale(0.44,0.44)"><g transform="" style="fill: rgb(0, 0, 0);">
<rect width="100" height="100"/>
</g></g><g transform="translate(836,1100) scale(0.44,0.44)"><g transform="" style="fill: rgb(0, 0, 0);">
<rect width="100" height="100"/>
</g></g><g transform="translate(880,1100) scale(0.44,0.44)"><g transform="" style="fill: rgb(0, 0, 0);">
<rect width="100" height="100"/>
</g></g><g transform="translate(924,1100) scale(0.44,0.44)"><g transform="" style="fill: rgb(0, 0, 0);">
<rect width="100" height="100"/>
</g></g><g transform="translate(1188,1100) scale(0.44,0.44)"><g transform="" style="fill: rgb(0, 0, 0);">
<g>
	<path d="M100,40.625V100H0V40.625L50,0L100,40.625z"/>
</g>
</g></g><g transform="translate(396,1144) scale(0.44,0.44)"><g transform="" style="fill: rgb(0, 0, 0);">
<rect width="100" height="100"/>
</g></g><g transform="translate(440,1144) scale(0.44,0.44)"><g transform="" style="fill: rgb(0, 0, 0);">
<g>
	<path d="M59.375,0H0v100h59.375L100,50L59.375,0z"/>
</g>
</g></g><g transform="translate(528,1144) scale(0.44,0.44)"><g transform="" style="fill: rgb(0, 0, 0);">
<g>
	<path d="M100,40.625V100H0V40.625L50,0L100,40.625z"/>
</g>
</g></g><g transform="translate(616,1144) scale(0.44,0.44)"><g transform="" style="fill: rgb(0, 0, 0);">
<g>
	<path d="M40.625,0H100v100H40.625L0,50L40.625,0z"/>
</g>
</g></g><g transform="translate(660,1144) scale(0.44,0.44)"><g transform="" style="fill: rgb(0, 0, 0);">
<rect width="100" height="100"/>
</g></g><g transform="translate(704,1144) scale(0.44,0.44)"><g transform="" style="fill: rgb(0, 0, 0);">
<rect width="100" height="100"/>
</g></g><g transform="translate(748,1144) scale(0.44,0.44)"><g transform="" style="fill: rgb(0, 0, 0);">
<g>
	<path d="M100,65.625V0H0v100h65.625"/>
</g>
</g></g><g transform="translate(924,1144) scale(0.44,0.44)"><g transform="" style="fill: rgb(0, 0, 0);">
<rect width="100" height="100"/>
</g></g><g transform="translate(1056,1144) scale(0.44,0.44)"><g transform="" style="fill: rgb(0, 0, 0);">
<g>
	<path d="M100,40.625V100H0V40.625L50,0L100,40.625z"/>
</g>
</g></g><g transform="translate(1144,1144) scale(0.44,0.44)"><g transform="" style="fill: rgb(0, 0, 0);">
<g>
	<path d="M0,34.375V100h100V34.375V0H34.375"/>
</g>
</g></g><g transform="translate(1188,1144) scale(0.44,0.44)"><g transform="" style="fill: rgb(0, 0, 0);">
<rect width="100" height="100"/>
</g></g><g transform="translate(1232,1144) scale(0.44,0.44)"><g transform="" style="fill: rgb(0, 0, 0);">
<g>
	<path d="M100,34.375L65.625,0H0v100h100V34.375z"/>
</g>
</g></g><g transform="translate(396,1188) scale(0.44,0.44)"><g transform="" style="fill: rgb(0, 0, 0);">
<g>
	<path d="M100,59.375V0H0v59.375L50,100L100,59.375z"/>
</g>
</g></g><g transform="translate(528,1188) scale(0.44,0.44)"><g transform="" style="fill: rgb(0, 0, 0);">
<g>
	<path d="M34.375,100H100V0H0v65.625"/>
</g>
</g></g><g transform="translate(572,1188) scale(0.44,0.44)"><g transform="" style="fill: rgb(0, 0, 0);">
<g>
	<path d="M59.375,0H0v100h59.375L100,50L59.375,0z"/>
</g>
</g></g><g transform="translate(836,1188) scale(0.44,0.44)"><g transform="" style="fill: rgb(0, 0, 0);">
<g>
	<path d="M100,40.625V100H0V40.625L50,0L100,40.625z"/>
</g>
</g></g><g transform="translate(924,1188) scale(0.44,0.44)"><g transform="" style="fill: rgb(0, 0, 0);">
<g>
	<path d="M100,59.375V0H0v59.375L50,100L100,59.375z"/>
</g>
</g></g><g transform="translate(1056,1188) scale(0.44,0.44)"><g transform="" style="fill: rgb(0, 0, 0);">
<rect width="100" height="100"/>
</g></g><g transform="translate(1100,1188) scale(0.44,0.44)"><g transform="" style="fill: rgb(0, 0, 0);">
<rect width="100" height="100"/>
</g></g><g transform="translate(1144,1188) scale(0.44,0.44)"><g transform="" style="fill: rgb(0, 0, 0);">
<g>
	<path d="M100,65.625V0H0v100h65.625"/>
</g>
</g></g><g transform="translate(1232,1188) scale(0.44,0.44)"><g transform="" style="fill: rgb(0, 0, 0);">
<g>
	<path d="M100,59.375V0H0v59.375L50,100L100,59.375z"/>
</g>
</g></g><g transform="translate(352,1232) scale(0.44,0.44)"><g transform="" style="fill: rgb(0, 0, 0);">
<polygon points="99.999,49.999 99.998,49.999 49.999,0 0,49.999 -0.001,49.999 -0.001,50 0,50 49.999,99.999 99.998,50 99.999,50 
	99.998,50 "/>
</g></g><g transform="translate(484,1232) scale(0.44,0.44)"><g transform="" style="fill: rgb(0, 0, 0);">
<polygon points="99.999,49.999 99.998,49.999 49.999,0 0,49.999 -0.001,49.999 -0.001,50 0,50 49.999,99.999 99.998,50 99.999,50 
	99.998,50 "/>
</g></g><g transform="translate(660,1232) scale(0.44,0.44)"><g transform="" style="fill: rgb(0, 0, 0);">
<g>
	<path d="M40.625,0H100v100H40.625L0,50L40.625,0z"/>
</g>
</g></g><g transform="translate(704,1232) scale(0.44,0.44)"><g transform="" style="fill: rgb(0, 0, 0);">
<g>
	<path d="M59.375,0H0v100h59.375L100,50L59.375,0z"/>
</g>
</g></g><g transform="translate(836,1232) scale(0.44,0.44)"><g transform="" style="fill: rgb(0, 0, 0);">
<g>
	<path d="M34.375,100H100V0H0v65.625"/>
</g>
</g></g><g transform="translate(880,1232) scale(0.44,0.44)"><g transform="" style="fill: rgb(0, 0, 0);">
<g>
	<path d="M59.375,0H0v100h59.375L100,50L59.375,0z"/>
</g>
</g></g><g transform="translate(968,1232) scale(0.44,0.44)"><g transform="" style="fill: rgb(0, 0, 0);">
<polygon points="99.999,49.999 99.998,49.999 49.999,0 0,49.999 -0.001,49.999 -0.001,50 0,50 49.999,99.999 99.998,50 99.999,50 
	99.998,50 "/>
</g></g><g transform="translate(1056,1232) scale(0.44,0.44)"><g transform="" style="fill: rgb(0, 0, 0);">
<g>
	<path d="M34.375,100H100V0H0v65.625"/>
</g>
</g></g><g transform="translate(1100,1232) scale(0.44,0.44)"><g transform="" style="fill: rgb(0, 0, 0);">
<g>
	<path d="M100,65.625V0H0v100h65.625"/>
</g>
</g></g><g transform="translate(0,0) scale(3.08, 3.08)"><g transform="" style="fill: rgb(0, 0, 0);">
<g>
	<rect x="15" y="15" style="fill:none;" width="70" height="70"/>
	<path d="M85,0H15H0v15v70v15h15h70h15V85V15V0H85z M85,85H15V15h70V85z"/>
</g>
</g></g><g transform="translate(968,0) scale(3.08, 3.08)"><g transform="" style="fill: rgb(0, 0, 0);">
<g>
	<rect x="15" y="15" style="fill:none;" width="70" height="70"/>
	<path d="M85,0H15H0v15v70v15h15h70h15V85V15V0H85z M85,85H15V15h70V85z"/>
</g>
</g></g><g transform="translate(0,968) scale(3.08, 3.08)"><g transform="" style="fill: rgb(0, 0, 0);">
<g>
	<rect x="15" y="15" style="fill:none;" width="70" height="70"/>
	<path d="M85,0H15H0v15v70v15h15h70h15V85V15V0H85z M85,85H15V15h70V85z"/>
</g>
</g></g><g transform="translate(88,88) scale(1.32, 1.32)"><g transform="" style="fill: rgb(0, 0, 0);">
<rect width="100" height="100"/>
</g></g><g transform="translate(1056,88) scale(1.32, 1.32)"><g transform="" style="fill: rgb(0, 0, 0);">
<rect width="100" height="100"/>
</g></g><g transform="translate(88,1056) scale(1.32, 1.32)"><g transform="" style="fill: rgb(0, 0, 0);">
<rect width="100" height="100"/>
</g></g></g></svg>